<?xml version="1.0" encoding="UTF-8" standalone="no"?>
<!DOCTYPE svg PUBLIC "-//W3C//DTD SVG 1.1//EN" "http://www.w3.org/Graphics/SVG/1.1/DTD/svg11.dtd">
<svg width="100%" height="100%" viewBox="0 0 307 307" version="1.1" xmlns="http://www.w3.org/2000/svg" xmlns:xlink="http://www.w3.org/1999/xlink" xml:space="preserve" xmlns:serif="http://www.serif.com/" style="fill-rule:evenodd;clip-rule:evenodd;stroke-linejoin:round;stroke-miterlimit:2;">
    <g id="face">
        <g id="outline" transform="matrix(1,0,0,1,-0.67137,-0.20913)">
            <path d="M246.674,156.592C251.973,165.536 252.276,166.373 259.862,175.758C262.098,178.524 269.407,186.767 274.52,196.554C279.413,205.919 282.159,216.649 277.589,225.656C274.55,231.646 268.255,237.018 256.842,240.607C254.002,241.5 251.167,241.693 250.666,241.726C246.805,241.983 246.843,241.856 243.002,241.855C242.999,241.855 242.996,241.855 242.994,241.855C241.128,243.713 237.288,246.68 229.734,249.613C226.073,251.035 222.012,250.449 219.569,249.849C216.08,251.44 213.187,251.889 210.701,251.688C207.289,251.413 204.588,249.886 202.106,248.05C196.132,249.931 170.129,257.797 151.361,256.156C134.089,254.645 120.964,253.597 109.026,249.808C108.738,250.578 108.086,251.165 107.276,251.362C100.964,252.898 95.979,252.729 92.071,251.766C91.525,252.409 90.678,252.744 89.815,252.622C88.168,252.388 79.437,251.152 70.196,245.727C69.51,245.324 68.867,244.909 68.263,244.486C67.835,244.595 67.376,244.59 66.932,244.457C43.366,237.38 34.019,228.455 31.655,224.772C30.837,223.498 23.804,207.328 32.726,192.964C42.419,177.36 45.258,179.612 61.464,158.002C61.605,157.812 61.773,157.644 61.962,157.502L61.969,157.497C53.949,149.96 49.549,143.463 47.838,136.72C45.961,129.317 47.287,121.535 51.023,111.583C53.142,105.938 59.273,97.711 67.275,89.389C79.088,77.103 94.946,64.552 107.287,59.626C114.189,56.872 129.74,48.849 163.309,50.364C166.949,50.528 187.082,50.173 222.742,72.401C239.004,82.538 256.314,110.413 258.996,121.526C260.577,128.076 261.463,134.463 259.456,140.751C257.762,146.057 254.018,151.36 246.674,156.592ZM61.261,237.332C60.457,236.13 59.922,235.143 59.552,234.545C58.836,233.388 59.176,231.87 60.319,231.131C61.462,230.391 62.986,230.701 63.749,231.829L67.036,236.689C68.378,238.25 70.208,239.935 72.728,241.415C75.722,243.172 78.656,244.446 81.259,245.366C80.098,244.079 79.419,243.017 79.098,242.614C78.273,241.576 78.401,240.076 79.389,239.193C80.377,238.311 81.882,238.352 82.82,239.288L88.49,244.944C89.23,245.395 90.057,245.817 90.979,246.182C93.582,247.213 96.921,247.781 101.163,247.362L99.634,245.999C98.708,245.174 98.526,243.796 99.207,242.759C99.889,241.723 101.226,241.343 102.351,241.866C116.286,248.346 130.92,249.349 151.796,251.175C169.025,252.682 192.575,245.784 199.7,243.565C199.886,243.212 200.159,242.901 200.506,242.665C201.414,242.048 202.619,242.096 203.475,242.784C205.701,244.571 207.947,246.45 211.103,246.704C212.538,246.82 214.141,246.591 216,245.916C216.386,244.978 217.317,244.348 218.365,244.37L219.953,244.405C220.677,244.421 221.335,244.746 221.787,245.265C223.512,245.609 225.811,245.773 227.925,244.952C238.3,240.924 240.641,236.88 240.855,236.639C241.466,235.953 242.405,235.657 243.3,235.87C243.904,236.013 244.422,236.373 244.768,236.866C246.802,236.891 247.353,236.936 250.334,236.737C250.74,236.71 253.04,236.562 255.342,235.838C265.031,232.791 270.55,228.479 273.13,223.394C276.989,215.787 274.221,206.778 270.089,198.869C265.175,189.463 258.123,181.559 255.974,178.901C248.212,169.3 247.866,168.412 242.485,159.329C242.4,159.38 242.315,159.431 242.229,159.482C241.107,160.151 239.66,159.844 238.907,158.777C238.153,157.71 238.348,156.243 239.354,155.409L241.537,153.601C241.968,153.245 242.501,153.046 243.051,153.028C249.715,148.454 253.2,143.908 254.693,139.231C256.419,133.822 255.495,128.333 254.135,122.699C251.62,112.275 235.351,86.153 220.097,76.644C185.861,55.304 166.578,55.517 163.084,55.359C130.761,53.9 115.786,61.618 109.14,64.27C97.321,68.987 82.193,81.088 70.879,92.854C63.463,100.567 57.668,108.108 55.704,113.34C52.408,122.121 51.028,128.959 52.685,135.491C54.355,142.076 59.07,148.267 67.544,155.82C68.103,156.319 68.41,157.042 68.378,157.791C68.347,158.54 67.981,159.235 67.382,159.685L65.25,161.286C49.389,182.384 46.53,180.217 36.974,195.602C29.547,207.559 35.182,221.01 35.863,222.071C37.771,225.043 44.827,231.425 61.261,237.332Z"/>
        </g>
        <g id="レイヤー1">
            <path d="M122.702,56.424C123.078,55.097 124.462,54.324 125.789,54.701C127.117,55.077 127.889,56.46 127.513,57.788C122.497,75.485 124.652,85.629 130.619,102.646C131.075,103.948 130.389,105.376 129.087,105.833C127.785,106.289 126.357,105.603 125.9,104.301C119.533,86.142 117.349,75.309 122.702,56.424Z"/>
            <path d="M180.734,57.407C180.494,56.049 181.401,54.75 182.76,54.51C184.119,54.269 185.417,55.177 185.658,56.535C191.4,88.962 180.659,103.851 180.651,103.865C180.008,105.085 178.494,105.553 177.274,104.909C176.053,104.266 175.585,102.752 176.229,101.532C176.236,101.519 186.086,87.626 180.734,57.407Z"/>
            <path d="M251.023,113.141C251.677,111.926 253.194,111.47 254.409,112.124C255.624,112.778 256.08,114.295 255.426,115.51C246.61,131.898 248.888,142.19 249.995,150.441C250.179,151.808 249.217,153.067 247.85,153.251C246.482,153.435 245.223,152.473 245.04,151.106C243.836,142.135 241.438,130.958 251.023,113.141Z"/>
            <path d="M54.614,111.372C54.273,110.035 55.081,108.672 56.418,108.331C57.755,107.99 59.118,108.799 59.459,110.136C62.838,123.381 65.08,128.977 64.227,151.461C64.175,152.839 63.013,153.916 61.634,153.864C60.255,153.812 59.178,152.65 59.23,151.271C60.054,129.562 57.877,124.161 54.614,111.372Z"/>
            <path d="M232.745,186.518C231.735,187.458 230.152,187.401 229.212,186.391C228.271,185.381 228.328,183.798 229.338,182.858C235.592,177.036 236.569,168.076 234.391,158.595C230.927,143.517 219.444,127.094 206.084,118.364C181.43,102.255 155.539,103.171 128.755,107.577C127.394,107.801 126.106,106.878 125.882,105.516C125.658,104.155 126.582,102.867 127.943,102.643C155.968,98.033 183.023,97.323 208.819,114.178C223.194,123.572 235.537,141.252 239.264,157.476C241.88,168.863 240.256,179.525 232.745,186.518Z"/>
            <path d="M128.578,102.333C129.857,101.814 131.316,102.431 131.834,103.709C132.353,104.988 131.736,106.447 130.458,106.966C125.227,109.088 83.827,121.098 72.438,160.363C71.037,165.194 70.426,173.666 71.35,176.819C72.219,179.782 74.23,180.498 75.425,181.233C76.601,181.956 76.968,183.497 76.245,184.672C75.523,185.847 73.982,186.215 72.806,185.492C70.898,184.319 67.938,182.954 66.552,178.225C65.472,174.539 65.998,164.619 67.636,158.971C79.652,117.541 123.059,104.571 128.578,102.333Z"/>
            <path d="M173.742,125.064C173.159,123.814 173.7,122.325 174.951,121.742C176.201,121.158 177.69,121.7 178.273,122.95C181.134,129.081 183.181,136.384 200.621,157.312C205.929,163.681 206.483,163.04 216.094,171.555C223.602,178.205 229.55,181.223 230.835,181.873C232.066,182.496 232.56,184.001 231.937,185.232C231.314,186.464 229.809,186.958 228.578,186.335C227.202,185.639 220.82,182.421 212.779,175.297C202.823,166.478 202.278,167.11 196.78,160.513C178.792,138.928 176.693,131.388 173.742,125.064Z"/>
            <path d="M173.533,124.487C173.608,123.109 174.788,122.051 176.166,122.127C177.544,122.202 178.601,123.382 178.526,124.76C176.82,155.948 178.986,168.485 180.764,177.017C181.046,178.367 180.178,179.693 178.827,179.974C177.476,180.256 176.151,179.388 175.869,178.037C174.047,169.293 171.785,156.448 173.533,124.487Z"/>
            <path d="M212.987,165.124C214.314,165.501 215.085,166.885 214.707,168.212C214.329,169.54 212.945,170.31 211.618,169.933C192.693,164.548 185.493,163.581 182.391,163.078C181.029,162.856 180.103,161.571 180.324,160.209C180.546,158.847 181.831,157.921 183.193,158.142C186.354,158.656 193.695,159.635 212.987,165.124Z"/>
            <path d="M119.323,124.419C119.111,123.055 120.045,121.776 121.409,121.564C122.772,121.352 124.051,122.287 124.263,123.65C126.642,138.945 130.448,149.783 138.413,157.753C146.445,165.79 158.613,170.874 177.368,174.905C178.717,175.195 179.577,176.525 179.287,177.874C178.997,179.223 177.666,180.083 176.317,179.793C156.319,175.495 143.441,169.857 134.876,161.287C126.244,152.65 121.901,140.995 119.323,124.419Z"/>
            <path d="M119.867,122.865C120.567,121.676 122.101,121.28 123.29,121.98C124.479,122.681 124.875,124.215 124.175,125.403C116.203,138.933 106.916,150.597 99.947,160.242C85.464,180.288 83.736,182.1 77.165,186.074C75.984,186.788 74.446,186.409 73.732,185.229C73.018,184.048 73.396,182.51 74.577,181.796C80.771,178.05 82.244,176.207 95.894,157.314C102.786,147.774 111.983,136.246 119.867,122.865Z"/>
            <path d="M125.261,157.917C126.634,157.781 127.859,158.786 127.995,160.159C128.13,161.532 127.125,162.757 125.752,162.892C107.183,164.725 101.448,167.749 97.705,169.87C96.505,170.551 94.978,170.129 94.298,168.928C93.617,167.728 94.039,166.201 95.24,165.521C99.25,163.248 105.363,159.88 125.261,157.917Z"/>
            <path d="M69.778,184.05C70.437,182.838 71.956,182.389 73.168,183.048C74.38,183.707 74.829,185.226 74.17,186.439C57.555,216.994 62.688,228.065 64.351,232.993C64.793,234.3 64.09,235.72 62.782,236.161C61.475,236.602 60.055,235.899 59.614,234.592C57.812,229.252 51.774,217.159 69.778,184.05Z"/>
            <path d="M76.956,184.491C77.28,183.15 78.632,182.324 79.973,182.648C81.314,182.972 82.14,184.324 81.816,185.666C75.837,210.411 76.45,223.41 83.026,239.269C83.554,240.543 82.948,242.007 81.674,242.535C80.399,243.064 78.935,242.458 78.407,241.184C71.452,224.41 70.632,210.665 76.956,184.491Z"/>
            <path d="M105.024,243.539C106.222,244.223 106.64,245.751 105.956,246.95C105.272,248.148 103.744,248.566 102.545,247.882C99.303,246.032 86.704,241.303 79.384,221.498C75.754,211.678 76.419,197.912 77.75,182.567C77.87,181.192 79.083,180.173 80.457,180.292C81.832,180.412 82.851,181.625 82.732,182.999C81.475,197.488 80.647,210.493 84.073,219.764C90.681,237.641 102.097,241.869 105.024,243.539Z"/>
            <path d="M206.441,247.021C205.362,247.882 203.788,247.705 202.927,246.626C202.067,245.548 202.244,243.973 203.323,243.113C210.56,237.339 229.22,225.105 226.318,186.267C226.215,184.891 227.248,183.69 228.624,183.587C230,183.484 231.201,184.518 231.304,185.894C234.427,227.689 214.229,240.808 206.441,247.021Z"/>
            <path d="M221.134,249.357C220.318,250.469 218.753,250.711 217.64,249.895C216.527,249.079 216.286,247.514 217.101,246.401C227.381,232.376 233.485,221.62 226.422,188.457C226.134,187.107 226.997,185.778 228.346,185.491C229.696,185.203 231.025,186.065 231.312,187.415C238.867,222.885 232.129,234.356 221.134,249.357Z"/>
            <path d="M243.461,240.308C242.765,241.5 241.233,241.903 240.041,241.208C238.85,240.512 238.447,238.98 239.142,237.789C242.429,232.156 245.403,228.974 243.995,216.074C242.874,205.808 239.322,198.548 233.208,183.637C232.685,182.361 233.297,180.899 234.573,180.376C235.85,179.852 237.311,180.464 237.835,181.74C244.197,197.259 247.798,204.847 248.965,215.531C250.572,230.246 247.21,233.883 243.461,240.308Z"/>
            <path d="M178.274,183.783L178.36,183.756C179.393,183.447 184.486,182.116 213.372,184.654C214.746,184.775 215.764,185.989 215.643,187.363C215.523,188.738 214.309,189.756 212.934,189.635C182.197,186.934 179.596,188.636 179.196,188.69C177.829,188.876 176.569,187.916 176.383,186.549C176.209,185.267 177.042,184.079 178.274,183.783Z"/>
            <path d="M210.698,178.163C211.853,177.408 213.404,177.733 214.158,178.888C214.913,180.043 214.589,181.593 213.434,182.348C211.841,183.389 211.837,183.347 207.395,186.759C206.3,187.599 204.73,187.393 203.889,186.298C203.049,185.204 203.255,183.633 204.349,182.793C209.017,179.209 209.025,179.256 210.698,178.163Z"/>
            <path d="M203.268,175.486C204.385,174.676 205.95,174.924 206.76,176.041C207.571,177.158 207.322,178.722 206.205,179.533C201.336,183.067 201.391,183.063 199.432,184.635C198.356,185.499 196.781,185.326 195.917,184.25C195.054,183.174 195.227,181.599 196.303,180.735C198.318,179.118 198.261,179.121 203.268,175.486Z"/>
            <path d="M217.029,209.346C218.014,210.312 218.029,211.896 217.063,212.881C216.096,213.866 214.512,213.881 213.527,212.915L208.97,208.445C207.985,207.479 207.97,205.895 208.936,204.91C209.903,203.925 211.487,203.909 212.472,204.876L217.029,209.346Z"/>
            <path d="M210.927,215.779C211.971,216.681 212.086,218.261 211.184,219.306C210.282,220.35 208.702,220.465 207.658,219.563L202.535,215.137C201.491,214.235 201.375,212.655 202.277,211.611C203.179,210.566 204.759,210.451 205.803,211.353L210.927,215.779Z"/>
            <path d="M93.455,212.316C92.458,213.27 90.874,213.234 89.921,212.236C88.968,211.239 89.003,209.655 90.001,208.702C90.34,208.377 90.316,208.369 94.194,204.601C95.183,203.64 96.767,203.663 97.729,204.652C98.69,205.642 98.668,207.226 97.678,208.187C93.773,211.982 93.797,211.99 93.455,212.316Z"/>
            <path d="M99.303,218.934C98.262,219.839 96.682,219.729 95.776,218.688C94.871,217.647 94.98,216.067 96.022,215.161C96.455,214.784 99.68,211.979 101.416,210.42C102.443,209.499 104.025,209.584 104.947,210.611C105.868,211.638 105.783,213.219 104.756,214.141C103.002,215.716 99.741,218.553 99.303,218.934Z"/>
            <path d="M96.195,189.799C94.828,189.992 93.563,189.039 93.37,187.673C93.177,186.307 94.129,185.041 95.496,184.848C115.829,181.977 127.528,183.188 129.197,183.339C130.571,183.464 131.585,184.681 131.461,186.055C131.336,187.429 130.119,188.444 128.745,188.319C127.133,188.173 115.834,187.026 96.195,189.799Z"/>
            <path d="M92.936,182.867C91.755,182.154 91.375,180.616 92.087,179.435C92.8,178.254 94.338,177.873 95.52,178.586C98.947,180.654 98.9,180.613 102.44,182.566C103.648,183.233 104.088,184.755 103.421,185.963C102.755,187.171 101.232,187.611 100.024,186.944C96.399,184.944 96.446,184.985 92.936,182.867Z"/>
            <path d="M100.788,180.204C99.624,179.463 99.279,177.917 100.019,176.753C100.76,175.588 102.306,175.244 103.47,175.984C107.53,178.565 107.489,178.536 111.554,181.052C112.727,181.778 113.09,183.321 112.364,184.494C111.637,185.667 110.095,186.03 108.922,185.304C104.831,182.771 104.874,182.8 100.788,180.204Z"/>
            <path d="M129.512,228.715C128.381,227.924 128.105,226.364 128.896,225.234C129.687,224.103 131.247,223.827 132.377,224.617C141.597,231.064 145.754,235.404 154.416,235.908C157.839,236.107 161.231,234.83 164.207,233.193C169.089,230.507 172.899,226.78 174.133,225.75C175.193,224.866 176.771,225.009 177.655,226.068C178.539,227.127 178.396,228.705 177.337,229.589C176.007,230.699 171.877,234.68 166.616,237.574C162.83,239.656 158.481,241.153 154.126,240.9C144.519,240.341 139.738,235.865 129.512,228.715Z"/>
            <path d="M122.565,185.665C122.64,184.287 123.82,183.23 125.198,183.306C126.576,183.381 127.633,184.561 127.557,185.939C127.356,189.608 127.182,193.416 126.381,196.625C125.672,199.462 124.466,201.864 122.555,203.535C120.589,205.255 117.858,206.289 113.946,206.051C109.359,205.772 106.553,203.102 104.877,199.759C102.746,195.506 102.63,190.095 102.541,188.768C102.448,187.391 103.491,186.199 104.867,186.106C106.244,186.013 107.437,187.056 107.53,188.432C107.592,189.363 107.61,192.69 108.661,195.842C109.495,198.347 110.998,200.863 114.25,201.06C116.507,201.198 118.128,200.765 119.262,199.772C120.451,198.733 121.089,197.179 121.529,195.414C122.26,192.487 122.381,189.011 122.565,185.665Z"/>
            <path d="M201.449,185.993C201.632,184.625 202.891,183.664 204.259,183.847C205.626,184.03 206.588,185.289 206.405,186.656C206.365,186.954 205.616,193.979 204.077,197.863C203.086,200.364 200.626,203.01 197.591,204.633C194.424,206.327 190.703,206.88 187.497,205.438C183.614,203.69 180.035,198.72 180.034,187.723C180.033,186.343 181.153,185.223 182.533,185.223C183.913,185.223 185.033,186.343 185.034,187.722C185.034,192.015 185.59,195.178 186.568,197.432C187.341,199.214 188.351,200.339 189.549,200.878C191.361,201.693 193.444,201.181 195.233,200.224C197.155,199.196 198.801,197.605 199.429,196.021C200.805,192.55 201.413,186.259 201.449,185.993Z"/>
            <path d="M156.675,58.476C157.157,58.657 157.587,58.988 157.89,59.452C160.831,63.967 162.816,65.782 164.854,67.558C167.133,69.544 169.467,71.491 172.983,76.378C173.398,76.955 173.548,77.682 173.395,78.377C173.241,79.072 172.799,79.668 172.179,80.017C166.053,83.461 164.857,84.513 155.95,95.374C155.474,95.955 154.762,96.291 154.011,96.289C153.259,96.287 152.549,95.947 152.076,95.363C141.143,81.884 136.832,80.631 134.592,79.31C133.835,78.862 133.368,78.05 133.363,77.171C133.358,76.291 133.816,75.474 134.568,75.018C136.255,73.996 143.375,69.651 152.511,58.106C153.367,57.024 154.94,56.841 156.022,57.697C156.3,57.917 156.518,58.183 156.675,58.476ZM154.577,63.493C148.758,70.47 143.824,74.641 140.633,76.98C143.348,78.728 147.466,82.075 154.015,89.859C160.769,81.704 162.947,79.652 167.249,77.084C164.957,74.223 163.246,72.788 161.569,71.328C159.476,69.504 157.428,67.649 154.577,63.493Z"/>
        </g>
    </g>
</svg>
